<svg width="26" height="26" viewBox="0 0 26 26" fill="none" xmlns="http://www.w3.org/2000/svg">
<path d="M13.25 11.6002C13.25 11.186 12.9142 10.8502 12.5 10.8502C12.0858 10.8502 11.75 11.186 11.75 11.6002H13.25ZM12.5 20.0002H11.75C11.75 20.2491 11.8734 20.4817 12.0795 20.6213C12.2856 20.7608 12.5475 20.789 12.7785 20.6966L12.5 20.0002ZM19.5 17.2002L19.7785 17.8966C20.0633 17.7827 20.25 17.5069 20.25 17.2002H19.5ZM20.25 11.3792C20.25 10.965 19.9142 10.6292 19.5 10.6292C19.0858 10.6292 18.75 10.965 18.75 11.3792H20.25ZM12.9538 11.0031C12.624 10.7524 12.1535 10.8166 11.9029 11.1464C11.6522 11.4762 11.7164 11.9467 12.0462 12.1973L12.9538 11.0031ZM15 13.5002L14.5462 14.0973C14.7687 14.2665 15.0669 14.2978 15.3198 14.1786L15 13.5002ZM19.8198 12.0576C20.1944 11.881 20.355 11.4341 20.1784 11.0594C20.0018 10.6848 19.5549 10.5242 19.1802 10.7008L19.8198 12.0576ZM12.2215 10.9038C11.8369 11.0577 11.6498 11.4942 11.8036 11.8787C11.9575 12.2633 12.394 12.4504 12.7785 12.2966L12.2215 10.9038ZM19.7785 9.49656C20.1631 9.34272 20.3502 8.90624 20.1964 8.52166C20.0425 8.13707 19.606 7.95001 19.2215 8.10384L19.7785 9.49656ZM19.2215 9.49656C19.606 9.65039 20.0425 9.46333 20.1964 9.07874C20.3502 8.69416 20.1631 8.25768 19.7785 8.10384L19.2215 9.49656ZM12.7785 5.30384C12.394 5.15001 11.9575 5.33707 11.8036 5.72166C11.6498 6.10624 11.8369 6.54272 12.2215 6.69656L12.7785 5.30384ZM19.8665 8.14582C19.505 7.94343 19.048 8.07234 18.8456 8.43375C18.6432 8.79515 18.7721 9.25219 19.1335 9.45458L19.8665 8.14582ZM22 10.2002L22.3199 10.8785C22.5739 10.7587 22.7397 10.5071 22.7495 10.2264C22.7593 9.94569 22.6115 9.68305 22.3665 9.54582L22 10.2002ZM19.1802 10.7008C18.8055 10.8775 18.645 11.3245 18.8217 11.6991C18.9983 12.0738 19.4452 12.2343 19.8198 12.0576L19.1802 10.7008ZM5.22146 8.10384C4.83687 8.25768 4.64981 8.69416 4.80364 9.07874C4.95748 9.46333 5.39396 9.65039 5.77854 9.49656L5.22146 8.10384ZM12.7785 6.69656C13.1631 6.54272 13.3502 6.10624 13.1964 5.72166C13.0425 5.33707 12.606 5.15001 12.2215 5.30384L12.7785 6.69656ZM5.86645 9.45458C6.22786 9.25219 6.35677 8.79515 6.15438 8.43375C5.95199 8.07234 5.49495 7.94343 5.13355 8.14582L5.86645 9.45458ZM3 10.2002L2.63355 9.54582C2.3885 9.68305 2.24065 9.94569 2.25046 10.2264C2.26026 10.5071 2.42606 10.7587 2.68009 10.8785L3 10.2002ZM5.18009 12.0575C5.55473 12.2342 6.00167 12.0738 6.17835 11.6991C6.35503 11.3245 6.19455 10.8775 5.81991 10.7008L5.18009 12.0575ZM5.77854 8.10384C5.39396 7.95001 4.95748 8.13707 4.80364 8.52166C4.64981 8.90624 4.83687 9.34272 5.22146 9.49656L5.77854 8.10384ZM12.2215 12.2966C12.606 12.4504 13.0425 12.2633 13.1964 11.8787C13.3502 11.4942 13.1631 11.0577 12.7785 10.9038L12.2215 12.2966ZM13.25 11.6002C13.25 11.186 12.9142 10.8502 12.5 10.8502C12.0858 10.8502 11.75 11.186 11.75 11.6002H13.25ZM12.5 20.0002L12.2215 20.6966C12.4525 20.789 12.7144 20.7608 12.9205 20.6213C13.1266 20.4817 13.25 20.2491 13.25 20.0002H12.5ZM5.5 17.2002H4.75C4.75 17.5069 4.93671 17.7827 5.22146 17.8966L5.5 17.2002ZM6.25 11.3792C6.25 10.965 5.91421 10.6292 5.5 10.6292C5.08579 10.6292 4.75 10.965 4.75 11.3792H6.25ZM12.9538 12.1973C13.2836 11.9467 13.3478 11.4762 13.0971 11.1464C12.8465 10.8166 12.376 10.7524 12.0462 11.0031L12.9538 12.1973ZM10 13.5002L9.68024 14.1786C9.9331 14.2978 10.2312 14.2665 10.4538 14.0973L10 13.5002ZM5.81991 10.7008C5.44523 10.5242 4.99818 10.6848 4.82158 11.0594C4.64498 11.4341 4.80541 11.8809 5.18009 12.0575L5.81991 10.7008ZM11.75 11.6002V20.0002H13.25V11.6002H11.75ZM12.7785 20.6966L19.7785 17.8966L19.2215 16.5038L12.2215 19.3038L12.7785 20.6966ZM20.25 17.2002V11.3792H18.75V17.2002H20.25ZM12.0462 12.1973L14.5462 14.0973L15.4538 12.9031L12.9538 11.0031L12.0462 12.1973ZM15.3198 14.1786L19.8198 12.0576L19.1802 10.7008L14.6802 12.8218L15.3198 14.1786ZM12.7785 12.2966L19.7785 9.49656L19.2215 8.10384L12.2215 10.9038L12.7785 12.2966ZM19.7785 8.10384L12.7785 5.30384L12.2215 6.69656L19.2215 9.49656L19.7785 8.10384ZM19.1335 9.45458L21.6335 10.8546L22.3665 9.54582L19.8665 8.14582L19.1335 9.45458ZM21.6801 9.52185L19.1802 10.7008L19.8198 12.0576L22.3199 10.8785L21.6801 9.52185ZM5.77854 9.49656L12.7785 6.69656L12.2215 5.30384L5.22146 8.10384L5.77854 9.49656ZM5.13355 8.14582L2.63355 9.54582L3.36645 10.8546L5.86645 9.45458L5.13355 8.14582ZM2.68009 10.8785L5.18009 12.0575L5.81991 10.7008L3.31991 9.52185L2.68009 10.8785ZM5.22146 9.49656L12.2215 12.2966L12.7785 10.9038L5.77854 8.10384L5.22146 9.49656ZM11.75 11.6002V20.0002H13.25V11.6002H11.75ZM12.7785 19.3038L5.77854 16.5038L5.22146 17.8966L12.2215 20.6966L12.7785 19.3038ZM6.25 17.2002V11.3792H4.75V17.2002H6.25ZM12.0462 11.0031L9.54619 12.9031L10.4538 14.0973L12.9538 12.1973L12.0462 11.0031ZM10.3198 12.8218L5.81991 10.7008L5.18009 12.0575L9.68024 14.1786L10.3198 12.8218Z" fill="#F79009"/>
</svg>
